<svg width="296" height="237" viewBox="0 0 296 237" fill="none" xmlns="http://www.w3.org/2000/svg">
<g filter="url(#filter0_d_5_192763)">
<rect x="23" y="44" width="250" height="150" rx="5.17241" fill="#E4002B"/>
</g>
<mask id="mask0_5_192763" style="mask-type:alpha" maskUnits="userSpaceOnUse" x="23" y="44" width="250" height="150">
<rect x="23" y="44" width="250" height="150" rx="5.17241" fill="white"/>
</mask>
<g mask="url(#mask0_5_192763)">
<g style="mix-blend-mode:multiply" opacity="0.15">
<path d="M26.3946 168.459C26.5129 173.396 29.3848 186.452 46.0349 198.834C52.9725 203.996 56.1562 206.32 57.0705 206.952V206.995C57.533 207.316 54.6074 207.241 53.8114 207.316C52.51 207.445 48.0678 207.038 44.5183 207.691C41.3131 208.28 41.7433 209.051 41.4314 211.354C41.184 213.185 41.4206 216.088 41.3238 218.562C41.227 221.036 41.0872 222.793 42.1413 223.981C43.1738 225.16 43.8299 225.342 48.2291 225.074C52.4132 224.817 63.9973 224.806 65.3955 224.528C67.1918 224.163 66.9014 224.806 65.8688 227.012C64.0941 230.793 58.3289 248.133 49.3585 264.606C48.1 266.919 51.6387 265.827 54.6504 267.273C60.1036 269.897 59.9208 270.625 61.3621 267.894C62.9109 264.927 70.7843 246.484 71.9997 240.797C72.161 240.058 72.4729 239.415 72.602 240.529C72.688 241.332 72.8064 264.638 72.1502 271.985C72.118 272.371 72.2148 272.778 72.4837 273.056C72.8816 273.463 73.4732 273.624 73.9788 273.742C73.9895 273.742 73.9895 273.742 73.9895 273.742C76.7 272.842 79.9805 272.178 82.7663 272.638C83.0137 272.606 83.2503 272.553 83.4762 272.488C83.6268 272.36 83.7559 272.221 83.8527 272.039C84.0678 271.653 84.1861 271.203 84.2829 270.775C84.2937 270.743 84.2937 270.711 84.3044 270.678C84.4442 270.057 84.5518 269.436 84.6163 268.804C84.6594 268.429 84.6809 268.054 84.7024 267.68C84.7347 267.198 84.7562 266.705 84.7669 266.223C84.7884 265.634 84.7992 265.056 84.81 264.466C84.8207 263.792 84.8207 263.117 84.8207 262.431C84.8207 261.682 84.8099 260.921 84.7992 260.161C84.7884 259.336 84.7669 259.615 84.7454 258.79C84.7239 257.912 84.6916 257.023 84.6486 256.145C84.6056 255.213 84.5626 254.281 84.5088 253.349C84.455 252.385 84.3905 251.411 84.3259 250.447C84.2507 249.451 84.1754 248.454 84.0893 247.469C84.0033 246.462 83.9065 245.456 83.7989 244.438C83.6913 243.421 83.573 242.414 83.4439 241.396C83.3149 240.39 83.1751 239.383 83.0352 238.376C82.8846 237.38 82.7341 236.395 82.5512 235.399C82.3791 234.435 82.1963 234.017 82.0027 233.053C81.8091 232.121 81.6047 231.2 81.3788 230.279C81.1637 229.401 80.9271 228.523 80.6797 227.644C80.4753 226.948 80.2602 226.263 80.0343 225.577C79.9913 225.47 79.8084 224.528 79.83 224.399C79.9053 224.056 80.3355 224.303 80.798 224.217C80.798 224.217 81.0239 224.174 81.1422 224.153C84.1216 223.756 89.3059 224.024 90.4783 224.067C91.6292 224.099 97.5234 224.656 99.1906 224.817C100.836 224.977 102.837 225.352 102.751 220.372C102.729 219.044 102.719 218.251 102.729 217.009C102.729 216.838 102.729 216.666 102.729 216.506C102.729 216.195 102.74 215.884 102.74 215.584C102.74 215.402 102.74 215.231 102.751 215.06C102.751 214.888 102.751 214.717 102.762 214.556C102.762 214.406 102.772 214.246 102.772 214.106C102.783 213.839 102.783 213.582 102.794 213.346C102.794 213.271 102.794 213.207 102.805 213.132C102.805 212.95 102.815 212.789 102.826 212.639C102.826 212.564 102.837 212.489 102.837 212.414C102.848 212.275 102.848 212.157 102.858 212.05C102.858 212.018 102.858 211.964 102.869 211.943C102.88 211.793 102.891 211.632 102.901 211.45C102.944 210.24 102.783 208.012 100.471 207.412C97.8031 206.748 93.1243 206.588 88.9187 206.952C88.3271 207.005 88.1981 206.952 88.3809 206.791V206.748C89.2844 206.106 95.3723 202.754 102.321 196.563C109.968 189.73 113.625 186.099 115.959 181.151C115.959 181.151 124.338 164.978 123.908 151.28C123.822 148.516 124.273 148.741 125.994 148.795C126.511 148.806 128.49 148.666 129.555 147.97C133.104 147.167 136.245 135.086 136.245 135.086C136.245 135.086 141.58 116.749 142.87 109.252C144.021 102.58 143.752 98.6812 139.665 96.6997L138.977 96.3142C138.665 96.1428 138.514 95.7787 138.611 95.4466C138.686 95.1682 138.772 94.8254 138.815 94.5791C140.816 87.6709 144.387 78.9206 143.569 75.3755C143.43 74.358 142.558 74.026 142.257 73.8225C141.838 73.544 140.257 71.7875 139.816 70.5451C139.751 70.363 139.73 70.1809 139.708 69.9882C138.579 56.943 133.921 40.5669 120.057 26.3114C120.036 26.3007 119.1 25.4439 118.53 24.9298C117.347 23.8694 115.819 22.5414 114.077 21.2347C110.387 18.4821 107.44 16.3722 101.363 13.3519C100.89 13.127 96.3295 11.0599 89.5963 9.41049C88.9617 9.23912 88.3271 9.07847 87.6925 8.92852C86.703 8.6929 85.1541 8.41443 83.3902 8.16809C79.2384 7.51476 74.6241 7.17203 69.827 7.47192C69.2569 7.50405 68.59 7.53618 68.4072 7.53618C68.1168 7.53618 67.8156 7.5576 67.5252 7.56831C67.2025 7.57902 66.8799 7.58973 66.5464 7.60044C65.5354 7.65399 64.1909 7.80394 62.7926 7.99673C60.5231 8.32875 58.0923 8.77858 56.5972 9.12131C54.9193 9.5283 52.6605 9.99956 49.8317 10.8028C48.6701 11.1456 47.4977 11.499 46.3361 11.8739C46.0134 11.981 45.68 12.0774 45.3573 12.1845C44.0988 12.5915 42.8404 13.0199 41.5604 13.4804C40.6354 13.8017 36.7095 15.494 35.8491 15.8902C35.4403 16.083 34.8703 16.3187 34.2679 16.565C31.4929 17.4432 30.9121 19.0391 30.8153 19.9066C30.7508 20.4743 30.6217 21.0312 30.3851 21.5453C26.3946 29.9958 17.0047 30.8097 13.2724 31.0025C12.2936 31.0454 11.4331 31.1953 11.7451 32.1378C12.541 34.5584 16.9294 39.0888 19.6184 39.9135C19.5754 40.2991 17.3166 40.7918 16.8434 40.9096C15.757 41.1881 11.3148 40.8025 11.089 40.8453C11.0675 40.8453 11.0567 40.8453 11.0352 40.856C5.99066 41.2737 4.44182 44.7011 3.99007 46.3183C3.85024 46.8217 3.92553 47.3679 4.21594 47.7963C5.3238 49.4886 6.50695 50.8595 7.38893 53.098C7.39969 53.1194 7.41044 53.1515 7.4212 53.1729C7.64707 53.762 7.86219 54.4046 8.04504 55.1329C8.1526 56.0861 8.91627 57.0822 7.94824 58.9565C6.22729 62.2767 1.92493 63.3156 1.27958 66.6144C0.365323 71.3055 1.98947 74.3794 3.77495 82.1337C5.00112 87.446 6.31334 92.9404 7.25986 95.4359C7.31364 95.5644 7.2276 95.7037 7.09853 95.7251C6.72207 95.8001 6.06595 95.9286 5.84008 96.0036C3.34471 96.9889 2.55953 98.9489 2.27988 102.762C1.65603 111.212 7.91597 124.247 9.86279 135.407C10.5189 139.177 12.2614 145.218 15.1655 147.681C15.8323 148.249 17.2306 148.613 18.1018 148.763C20.3713 149.159 21.3501 147.724 21.4792 149.994C21.5114 150.466 21.6728 151.74 21.6835 152.458C22.0815 160.501 26.3946 168.459 26.3946 168.459ZM30.299 34.2478C30.7938 33.4873 31.9877 32.3735 33.1924 31.5166C34.4508 30.6277 40.6139 26.0222 46.3468 24.2764C47.4117 23.9658 47.6806 23.8052 48.3582 23.6445C49.2187 23.4196 49.9501 21.5774 48.1538 21.3097C46.2715 21.0419 45.5079 21.1597 44.5076 21.1919C43.5073 21.2133 43.0233 20.6778 43.7547 19.8959C44.4968 19.1033 45.8198 18.3001 48.1538 17.3683C53.2521 15.344 62.2978 14.2623 66.5142 13.8874C72.0212 13.4162 72.688 13.4376 76.259 13.7053C79.6149 13.9624 82.2393 14.5836 83.487 14.7978C89.8007 15.9331 97.0824 18.8463 103.547 22.3807C106.956 24.3943 110.237 26.6327 113.292 29.0104C122.563 36.2078 133.201 49.8849 131.652 78.7064C131.469 82.1123 131.06 83.9973 130.834 84.822C130.598 85.6574 129.49 87.0819 128.909 85.1968C126.995 79.0277 124.532 68.1567 118.928 59.5777C118.153 58.3781 116.949 58.496 117.067 59.7491C117.11 60.2739 117.368 65.7683 117.239 66.8393C116.336 73.9188 118.508 71.1663 121.713 78.7599C122.703 81.1055 123.983 85.7538 124.306 88.7527C124.392 89.5024 124.489 90.3806 124.51 91.216C124.532 92.2764 124.004 92.3406 124.004 92.3406C121.81 92.3299 117.981 91.291 115.916 91.2268C113.571 91.1518 97.2653 90.9911 91.1452 91.4731C85.0143 91.9443 81.68 94.14 78.2058 96.9675C77.625 97.4388 76.8076 97.8779 76.345 98.1028C76.1084 98.2206 75.8503 98.2527 75.6029 98.2099C75.3233 98.1563 74.8607 98.0707 74.1401 97.9207C72.645 97.6101 70.838 97.4923 69.3752 97.9421C67.9124 98.3813 67.224 98.7561 65.6429 97.8457C63.3949 96.5391 59.9423 91.3124 47.9172 91.216C41.0979 91.1625 32.1598 91.0661 26.8894 91.3017C25.19 91.3767 24.2972 91.5695 23.867 91.5588C23.8347 91.3553 23.824 91.0875 23.824 91.034C23.7379 81.4696 30.0086 83.5903 30.7185 81.1055C32.5147 74.9042 32.9342 60.0061 43.7977 50.8488C48.9928 46.479 51.6925 46.2969 56.5219 46.2969C61.717 46.2969 66.783 47.6464 69.3752 48.9209C71.4296 49.9384 72.4514 50.6132 73.2581 50.0134C74.0648 49.4029 76.2267 47.4536 77.1195 46.7789C78.0122 46.0934 77.6788 45.0331 76.8291 44.3369C76.0116 43.6836 68.3104 34.0228 56.4896 32.0736C53.7792 31.6237 51.7786 31.2167 49.3262 31.206C47.9925 31.1525 46.8201 31.1525 43.7224 31.5273C39.1942 32.0736 33.2892 34.5798 29.4816 36.0899C29.2665 35.865 30.0624 34.5905 30.299 34.2478ZM123.402 96.4106C122.918 96.9354 122.477 96.6248 121.477 96.8711C120.692 97.0639 120.165 97.503 119.444 97.4387C118.304 97.3316 117.734 95.9714 118.347 95.0825C119.293 93.7116 120.627 94.9004 121.703 95.0932C122.23 95.1896 122.606 95.0289 123.133 95.2217C123.66 95.4038 123.736 95.8965 123.402 96.4106ZM107.215 101.23C107.215 101.23 105.063 99.7629 104.375 98.5741C104.031 97.985 104.117 97.4923 105.02 97.4816C108.247 97.4495 111.205 97.3745 112.646 98.5741C113.69 99.4523 113.722 101.284 113.206 102.473C112.614 103.822 111.431 103.437 110.753 103.34C110.086 103.244 107.215 101.23 107.215 101.23ZM108.634 106.971C108.021 107.282 105.719 106.51 105.085 106.157C103.816 105.45 102.901 104.947 101.191 103.49C100.051 102.537 97.9859 102.087 96.0176 102.173C94.5118 102.248 93.0167 102.569 91.8658 102.837C90.7257 103.115 90.6396 102.076 90.9838 101.691C91.328 101.305 92.9199 99.8486 96.4048 98.9382C96.9103 98.8097 97.8891 98.8525 98.3839 98.9061C99.8359 99.0667 101.578 100.031 102.826 101.241C104.074 102.462 106.601 104.604 107.978 105.439C108.634 105.814 110.086 106.232 108.634 106.971ZM58.8667 131.069C59.2324 131.733 59.3507 132.847 59.2432 133.308C59.1356 133.875 57.1458 134.614 55.4786 132.14C53.8222 129.688 54.5966 126.667 55.5862 125.478C57.1458 123.572 59.5336 124.954 59.1894 125.66C57.9955 128.113 58.5333 130.405 58.8667 131.069ZM35.8813 103.619C36.2793 103.297 36.4514 103.297 37.7851 102.569C38.7317 102.044 39.818 101.402 40.9151 100.695C42.8942 99.4095 46.648 98.0814 48.2506 98.1028C49.4015 98.1135 51.4129 98.6169 52.4884 99.7736C53.6071 100.984 53.9082 102.398 52.4562 102.151C51.0149 101.905 49.4768 101.519 46.691 102.151C43.5826 102.858 41.4637 104.047 39.9578 104.711C38.4197 105.418 36.8709 105.589 36.3546 105.568C35.8598 105.525 34.44 104.775 35.8813 103.619ZM33.8377 100.845C32.3534 101.776 30.9121 102.858 29.8043 103.576C28.4598 104.465 26.5667 103.619 27.1153 101.734C27.3842 100.823 28.6856 98.4777 30.8798 98.0599C31.1703 98.0064 32.2566 97.7922 33.1601 97.6851C34.2249 97.5673 35.3543 97.4816 35.9244 97.4495C37.4732 97.3852 37.6453 98.6169 36.5912 99.2595C35.9028 99.6986 34.8165 100.223 33.8377 100.845ZM9.07761 70.0203C10.3683 66.5287 12.7239 63.562 14.3372 61.452C15.8108 59.5349 15.1117 56.9965 14.3588 54.7259C13.8747 52.6374 12.5195 50.4739 12.3151 49.8956C12.1645 49.4993 12.1646 49.1673 12.2936 48.8888C12.3904 48.8245 12.4657 48.771 12.5733 48.7067L15.4236 48.4604C23.5658 47.4215 30.7508 44.5725 32.9127 43.3623C33.9775 42.7625 35.1177 42.3019 36.2685 41.9057C37.6238 41.4451 39.0328 40.9846 40.4418 40.8025C41.5067 40.6311 42.7651 40.4598 43.8515 40.3419C45.4648 40.1599 48.0032 41.2845 47.4439 41.6165C46.0779 42.4305 39.7535 43.8871 34.1927 50.5061C30.783 54.5546 29.9871 57.0608 28.8362 58.9244C27.6746 60.7987 26.7388 61.2378 25.1039 62.6516C24.308 63.337 22.6731 64.7508 21.8771 67.0214C21.0704 69.3134 17.962 77.2926 17.5533 89.9629C17.5102 91.4303 17.2521 92.9833 15.8538 93.5188H15.8431C14.6922 93.9793 13.7672 94.7397 13.5628 93.9151C12.8207 91.1304 11.1105 85.1326 10.4006 81.3304C10.1747 80.1308 9.90582 78.942 9.62616 77.7639C8.81947 74.5401 8.46452 71.659 9.07761 70.0203ZM15.9184 130.02C13.5951 128.477 13.7242 126.464 13.1326 124.482C11.8741 120.273 10.5297 115.207 9.36802 110.891C8.65813 108.288 8.48603 102.173 12.0355 102.173C13.821 102.173 15.1655 102.73 15.7355 104.411C17.0047 108.149 14.6061 107.496 15.23 111.908C15.671 115.036 16.2626 118.11 17.2521 123.411C17.7039 125.853 18.5105 131.733 16.3486 130.309L15.9184 130.02ZM24.8458 97.3745C24.1251 97.4495 23.512 97.0103 22.7161 96.839C21.8019 96.6355 21.2425 96.9139 20.8661 96.4213C20.5327 95.9072 20.5972 95.4145 21.1135 95.2217C21.6405 95.0289 22.017 95.1682 22.544 95.0718C23.6196 94.8683 24.9318 93.6473 25.8999 95.0075C26.5237 95.875 25.9859 97.246 24.8458 97.3745ZM26.5237 123.101C26.201 121.719 26.8141 119.652 30.0946 121.741C30.6217 122.073 32.1598 122.769 33.8592 123.261C34.8918 123.561 35.5694 123.122 35.8598 122.372C36.161 121.633 37.0107 120.145 35.5587 119.438C34.1066 118.72 30.5249 118.099 28.4813 113.076C28.1156 112.176 28.7394 111.148 29.3095 110.88C29.8903 110.623 30.6109 110.752 31.2778 111.384C31.9447 112.005 33.3752 113.376 34.6552 113.429C35.8383 113.483 36.0319 113.012 36.2685 112.733C37.2581 111.63 40.0977 107.485 45.9919 108.203C48.4227 108.503 50.66 109.038 51.4774 109.102C52.0582 109.145 53.6823 109.209 55.2204 108.92C56.9844 108.588 59.6196 108.042 58.3289 109.531C57.2856 110.73 56.4036 111.234 57.3286 112.54C57.3716 112.605 57.4254 112.669 57.4684 112.733C58.2967 113.89 58.3182 115.443 57.4792 116.589L57.3824 116.739C56.0809 118.42 53.392 120.359 47.8204 120.712C45.282 120.873 45.1207 120.777 45.0669 122.222C45.0454 122.779 45.0561 123.069 45.1314 123.465C45.282 124.193 45.7552 124.493 47.5085 124.6C48.7884 124.675 51.1225 124.429 51.1225 124.429C51.6925 124.257 52.3701 124.622 52.0044 125.093C51.9507 125.168 51.714 125.511 51.671 125.564C50.4126 127.192 50.0146 128.67 49.8963 129.559C49.7995 130.309 49.3585 130.984 48.6916 131.326C48.6809 131.326 48.6701 131.337 48.6701 131.337C47.8527 131.755 44.5721 132.462 41.9907 134.582C39.42 136.703 34.0421 138.459 31.7296 135.846C29.4063 133.265 27.524 127.438 26.5237 123.101ZM50.7245 184.407C46.121 184.546 34.0743 177.306 28.8255 156.774C27.4595 151.494 30.8046 147.199 32.8804 146.471C34.1066 146.021 34.752 145.882 35.1607 145.828C35.5909 145.774 37.6883 145.785 37.613 148.141C37.5377 150.048 39.1296 165.985 43.3137 171.747C44.3462 173.172 45.3035 173.225 45.7875 171.972C46.2285 170.794 46.9492 169.284 47.1858 168.705C47.3579 168.288 48.8745 165.974 49.3262 167.731C50.2835 171.458 52.5315 179.137 53.4672 181.119C55.0268 184.407 52.4562 184.353 50.7245 184.407ZM53.6178 151.119C47.6053 151.044 44.8195 148.816 44.3893 148.141C43.9805 147.499 44.6689 146.995 45.2927 146.792C46.7125 146.342 49.2402 145.078 50.262 144.296C51.2945 143.536 54.1234 141.78 55.5539 140.858C56.2315 140.419 60.0929 138.749 62.3516 140.312C65.7397 142.669 68.9127 144.243 74.7209 143.889C78.4532 143.665 78.3672 140.666 81.4111 139.712C84.1538 138.856 84.6809 138.181 85.5413 137.677C86.6492 137.453 87.4667 137.174 88.6713 138.299C90.1987 139.712 90.7472 140.826 92.5112 142.808C94.9313 145.517 97.588 146.792 98.4162 146.953C99.2336 147.124 99.8252 147.788 99.836 148.056C99.8467 148.324 99.5025 149.17 97.0717 149.866C88.9402 152.19 80.1419 150.701 75.6136 148.891C73.3119 147.981 71.0747 147.724 68.5578 148.955C66.0086 150.209 59.2324 151.183 53.6178 151.119ZM84.0033 156.11C82.6157 156.613 78.6146 157.545 76.6785 157.663C74.7209 157.77 68.5255 158.188 67.4929 158.145C66.213 158.07 64.492 157.449 63.0938 156.174C62.8141 155.917 62.5022 155.028 63.6531 155.007C65.7828 154.964 69.3645 153.839 81.723 154.878C83.046 154.985 83.6698 155.039 83.9817 155.071C84.2937 155.103 85.38 155.628 84.0033 156.11ZM136.804 108.535C135.18 117.156 133.362 121.473 132.19 126.796C130.974 132.322 128.587 140.409 126.274 140.612C123.929 141.308 122.993 138.62 121.488 140.612C120.595 141.801 119.896 143.365 119.1 144.382C118.594 145.046 118.089 146.524 118.078 147.328C118.078 148.881 117.992 153.904 116.594 160.501C114.486 170.44 110.656 177.691 106.677 182.265C99.0508 191.015 91.9089 192.429 91.0591 192.879C89.962 193.457 88.3164 193.114 87.7678 192.857C87.2193 192.611 86.7998 191.957 85.8533 191.036C84.8852 190.137 84.5411 191.508 84.5088 191.861C84.4658 192.193 85.0036 196.327 83.9387 198.202C81.6585 202.229 79.4535 202.582 78.2273 207.605C77.8186 209.298 78.0983 211.857 76.0654 210.701C71.0962 207.873 63.9758 200.215 62.4915 192.793C62.0397 190.533 62.4592 188.016 63.8467 183.711C64.6426 181.183 65.2127 178.377 65.2127 176.76C65.2127 173.889 64.0833 171.458 65.2127 171.212C67.2993 170.751 68.2459 176.128 69.2246 175.571C70.9133 174.607 69.6549 168.92 69.6549 168.92C69.6549 168.92 68.9665 167.302 66.0086 166.617C64.3092 166.221 63.7714 164.957 65.5891 164.068C66.9444 163.404 68.5147 162.536 70.354 162.804C82.6157 164.539 86.1437 162.076 91.0914 160.748C92.0702 160.491 92.6403 160.373 93.4039 160.737C94.1568 161.09 96.2005 162.193 96.6092 163.232C97.0287 164.261 96.5984 168.32 97.2438 171.361C97.9106 174.425 100.062 171.64 100.6 170.43C101.148 169.23 101.697 166.263 101.815 165.514C101.933 164.764 102.568 161.615 103.697 160.673C105.945 158.82 106.73 156.378 107.096 155.425C107.473 154.471 108.053 151.526 107.946 147.22C107.838 142.926 107.064 142.465 106.021 141.533C104.988 140.612 103.751 140.794 101.127 138.395C98.7819 136.253 96.8566 132.794 95.1679 130.619C93.4684 128.445 90.6504 126.121 87.4344 125.339C84.2291 124.568 85.5629 127.513 85.735 128.338C85.864 128.916 86.6277 131.53 85.5521 132.387C84.5088 133.243 78.023 137.581 72.2471 136.082C65.3633 134.293 62.9862 130.469 62.8356 126.785C62.7388 124.172 63.9973 121.655 65.5569 118.656C66.4711 116.91 66.8476 113.986 67.2133 111.18C67.5037 108.942 68.106 105.696 68.6008 104.54C68.9557 103.704 69.784 102.805 71.6555 102.912C73.5055 103.019 74.7101 103.929 75.0543 105.514C76.2482 111.03 78.2058 112.423 78.8619 112.872C79.5288 113.322 80.7765 112.423 81.2713 112.101C81.766 111.78 83.0137 110.516 82.6265 109.841C82.0242 108.792 81.7015 108.16 81.5617 107.549C81.3358 106.5 82.648 106.628 82.9169 106.842C85.0788 108.535 87.1117 108.685 90.844 109.306C97.3729 110.388 98.3086 107.999 102.783 108.77C103.364 108.867 104.472 109.359 104.827 110.023C105.128 110.602 105.666 111.919 106.214 112.144C106.763 112.358 108.086 112.433 108.774 112.562C109.721 112.722 111.42 112.615 111.14 114.361C110.409 119.041 104.988 120.327 102.45 120.766C101.406 120.948 100.922 121.034 100.75 121.184C100.202 121.666 100.18 123.133 100.815 124.075C101.266 124.739 103.31 124.782 106.117 124.247C109.043 123.69 111.85 122.287 114.077 118.838C116.432 115.186 117.723 107.153 117.992 105.654C118.261 104.154 118.863 101.648 119.691 101.134C120.509 100.62 124.327 99.463 124.865 99.5594C125.51 99.6665 125.973 99.9771 126.274 101.444C126.575 102.933 126.016 111.78 126.005 113.119C125.984 114.543 126.726 114.532 127.134 114.34C128.027 113.933 130.404 112.358 130.942 110.527C131.34 109.177 130.2 107.207 130.77 105.332C131.663 102.419 132.545 101.637 133.158 101.701C136.879 102.055 137.643 103.683 136.761 108.395L136.804 108.535Z" fill="#202124"/>
</g>
<path d="M258.03 57.661L257.473 60.1244C257.46 60.1818 257.428 60.2332 257.382 60.2701C257.335 60.307 257.277 60.3272 257.218 60.3272H256.425C256.39 60.3272 256.354 60.32 256.321 60.306C256.289 60.292 256.259 60.2716 256.235 60.2459C256.21 60.2202 256.191 60.1899 256.179 60.1568C256.167 60.1237 256.162 60.0885 256.165 60.0534C256.165 60.0214 256.165 60.0084 256.165 60.008C256.203 59.2043 255.687 58.6042 254.519 58.6042C252.576 58.6042 251.164 60.1706 250.979 62.2277C250.788 64.3521 252.299 65.5868 254.39 65.5864C255.203 65.5887 256.011 65.4702 256.788 65.2348C256.831 65.2214 256.877 65.2193 256.921 65.2286C256.966 65.2379 257.007 65.2583 257.041 65.2879C257.074 65.3175 257.1 65.3552 257.115 65.3973C257.129 65.4395 257.132 65.4847 257.124 65.5284L256.876 66.8013C256.866 66.8544 256.842 66.9038 256.806 66.9443C256.769 66.9849 256.722 67.015 256.67 67.0316C256.241 67.1658 255.038 67.4813 253.195 67.4813C248.819 67.4813 247.043 65.0078 247.317 62.486C247.564 60.2404 249.076 56.9312 255.039 56.9312C255.976 56.9307 256.91 57.0563 257.813 57.3046C257.889 57.3251 257.954 57.3737 257.994 57.4401C258.035 57.5065 258.047 57.5856 258.03 57.661V57.661ZM233.145 57.3103L233 57.9526C232.984 58.0218 232.996 58.0941 233.032 58.1553C233.068 58.2165 233.127 58.262 233.196 58.2827V58.2827C233.448 58.3784 233.504 58.616 233.284 58.794L229.622 61.7849L230.251 58.9663C230.358 58.5341 230.708 58.3581 230.929 58.2855L230.965 58.2746C231.012 58.26 231.055 58.2334 231.089 58.1973C231.123 58.1612 231.147 58.1169 231.157 58.069L231.308 57.4011C231.316 57.364 231.316 57.3255 231.307 57.2885C231.298 57.2515 231.281 57.2169 231.256 57.1874C231.232 57.1578 231.201 57.134 231.166 57.1178C231.131 57.1015 231.093 57.0931 231.054 57.0934H226.333C226.268 57.0934 226.205 57.1151 226.155 57.1549C226.104 57.1947 226.069 57.2502 226.055 57.3123L225.903 57.9887C225.888 58.0553 225.899 58.125 225.933 58.1843C225.967 58.2436 226.023 58.2883 226.089 58.3098L226.135 58.3256C226.432 58.4396 226.775 58.6963 226.63 59.371L225.502 64.4348C225.208 65.8179 224.731 66.1006 224.276 66.1521H224.261C224.202 66.159 224.146 66.1837 224.102 66.2229C224.058 66.2622 224.027 66.3139 224.013 66.371L223.867 67.0198C223.859 67.0589 223.859 67.0994 223.869 67.1383C223.878 67.1771 223.896 67.2135 223.922 67.2446C223.947 67.2757 223.98 67.3008 224.016 67.318C224.053 67.3352 224.093 67.3442 224.134 67.3442H229.097C229.155 67.3442 229.211 67.3249 229.257 67.2896C229.303 67.2543 229.335 67.205 229.348 67.1496L229.52 66.3905C229.534 66.3306 229.525 66.268 229.495 66.2139C229.466 66.1598 229.418 66.1177 229.36 66.0953L229.328 66.0827C229.077 65.9826 228.734 65.7693 228.821 65.367L229.399 62.7776C231.377 66.326 232.031 67.3483 234.404 67.3479H236.546C236.605 67.3479 236.662 67.3282 236.708 67.2922C236.754 67.2562 236.786 67.2059 236.799 67.1496L236.949 66.4919C236.958 66.4524 236.958 66.4114 236.949 66.3719C236.94 66.3324 236.923 66.2953 236.897 66.2633C236.872 66.2313 236.84 66.2053 236.803 66.187C236.766 66.1688 236.726 66.1588 236.685 66.1577C236.148 66.1496 235.885 66.0276 235.352 65.3536L232.602 61.6957L236.176 58.7761C236.656 58.4076 237.241 58.3042 237.565 58.2616L237.597 58.2583C237.653 58.2532 237.705 58.2311 237.747 58.195C237.788 58.1589 237.817 58.1108 237.829 58.0576L237.975 57.4088C237.984 57.371 237.984 57.3318 237.976 57.2939C237.967 57.2561 237.95 57.2207 237.925 57.1904C237.9 57.16 237.869 57.1356 237.834 57.1188C237.798 57.102 237.759 57.0933 237.72 57.0934H233.419C233.355 57.0936 233.293 57.1153 233.244 57.1547C233.194 57.1941 233.159 57.2489 233.145 57.3103V57.3103ZM246.369 60.1232H247.205C247.264 60.1232 247.321 60.1034 247.368 60.0669C247.414 60.0305 247.446 59.9797 247.459 59.9229L248.028 57.4044C248.036 57.3669 248.035 57.3282 248.026 57.2909C248.017 57.2536 248 57.2188 247.976 57.189C247.951 57.1592 247.92 57.1351 247.885 57.1185C247.85 57.102 247.811 57.0934 247.772 57.0934H238.98C238.915 57.0933 238.852 57.1151 238.801 57.1549C238.751 57.1948 238.716 57.2505 238.702 57.3127L238.55 57.9854C238.536 58.0491 238.546 58.1157 238.578 58.1728C238.61 58.2299 238.662 58.2736 238.724 58.2956L238.754 58.3058C239.043 58.4144 239.446 58.6898 239.271 59.3665L237.547 67.0377C237.539 67.0749 237.539 67.1136 237.548 67.1508C237.557 67.1879 237.574 67.2227 237.598 67.2525C237.622 67.2822 237.653 67.3063 237.688 67.3228C237.723 67.3393 237.762 67.3479 237.8 67.3479H241.755C241.815 67.3479 241.872 67.3281 241.918 67.2917C241.964 67.2554 241.996 67.2047 242.009 67.148L242.181 66.382C242.194 66.3272 242.186 66.27 242.161 66.2199C242.135 66.1698 242.093 66.1299 242.041 66.1071L242.002 66.0896C241.751 65.968 241.378 65.6906 241.503 65.1537C241.517 65.0816 241.892 63.419 241.892 63.419H245.255C245.315 63.4189 245.373 63.3988 245.419 63.3619C245.466 63.325 245.498 63.2736 245.51 63.2163L245.827 61.8157C245.835 61.7782 245.835 61.7392 245.826 61.7017C245.817 61.6643 245.8 61.6292 245.775 61.5992C245.751 61.5692 245.72 61.545 245.684 61.5284C245.649 61.5117 245.61 61.5031 245.571 61.5031H242.324L242.93 58.7863L245.199 58.7834C245.933 58.7834 246.156 59.1597 246.114 59.8016C246.114 59.8016 246.114 59.8097 246.11 59.8357C246.106 59.8717 246.109 59.9081 246.12 59.9426C246.132 59.9771 246.15 60.0089 246.174 60.036C246.199 60.0631 246.229 60.0849 246.262 60.0999C246.296 60.1149 246.332 60.1229 246.369 60.1232Z" fill="white"/>
<path d="M260.068 58.4545C260.063 58.6711 259.972 58.8774 259.815 59.0289C259.657 59.1805 259.445 59.2653 259.224 59.2653C259.004 59.2653 258.792 59.1805 258.634 59.0289C258.477 58.8774 258.386 58.6711 258.381 58.4545C258.386 58.2378 258.477 58.0315 258.634 57.88C258.792 57.7284 259.004 57.6436 259.224 57.6436C259.445 57.6436 259.657 57.7284 259.815 57.88C259.972 58.0315 260.063 58.2378 260.068 58.4545V58.4545ZM259.944 58.4545C259.947 58.3602 259.93 58.2665 259.895 58.1788C259.86 58.0911 259.807 58.0112 259.74 57.9438C259.673 57.8763 259.593 57.8228 259.505 57.7862C259.416 57.7496 259.321 57.7307 259.225 57.7307C259.129 57.7307 259.034 57.7496 258.946 57.7862C258.858 57.8228 258.778 57.8763 258.711 57.9438C258.644 58.0112 258.591 58.0911 258.556 58.1788C258.521 58.2665 258.504 58.3602 258.506 58.4545C258.504 58.5487 258.521 58.6424 258.556 58.7301C258.591 58.8178 258.644 58.8977 258.711 58.9651C258.778 59.0326 258.858 59.0861 258.946 59.1227C259.034 59.1593 259.129 59.1782 259.225 59.1782C259.321 59.1782 259.416 59.1593 259.505 59.1227C259.593 59.0861 259.673 59.0326 259.74 58.9651C259.807 58.8977 259.86 58.8178 259.895 58.7301C259.93 58.6424 259.947 58.5487 259.944 58.4545V58.4545ZM259.449 58.8567C259.427 58.8313 259.413 58.8004 259.408 58.7675L259.379 58.6373C259.354 58.5481 259.308 58.5238 259.214 58.5238H259.041V58.8567H258.9V58.0279H259.264C259.456 58.0279 259.555 58.109 259.555 58.2635C259.556 58.3159 259.537 58.3667 259.501 58.4054C259.465 58.4442 259.415 58.468 259.362 58.4719C259.399 58.4748 259.434 58.4899 259.461 58.5147C259.488 58.5396 259.506 58.5728 259.512 58.6089L259.549 58.7594C259.557 58.7957 259.574 58.8293 259.599 58.8567H259.449ZM259.245 58.1374H259.041V58.4139H259.245C259.358 58.4139 259.41 58.3648 259.41 58.2716C259.41 58.1783 259.358 58.1374 259.245 58.1374V58.1374Z" fill="white"/>
<path d="M108.772 117.083H109.758V121.689H108.772V117.083ZM112.846 121.689H111.853V117.903H110.984V117.083H113.715V117.903H112.846V121.689ZM116.03 117.538C116.03 118.152 115.623 118.607 114.933 118.607V118.2C115.278 118.193 115.45 118.027 115.45 117.827C115.45 117.8 115.444 117.786 115.437 117.765C115.409 117.779 115.354 117.793 115.306 117.793C115.064 117.793 114.857 117.614 114.857 117.31C114.857 116.965 115.106 116.772 115.388 116.772C115.802 116.772 116.03 117.11 116.03 117.538ZM118.395 121.745C117.602 121.745 117.058 121.227 117.044 120.386L117.892 120.152C117.878 120.641 118.078 120.958 118.389 120.958C118.637 120.958 118.782 120.8 118.782 120.538C118.782 119.772 117.12 119.627 117.12 118.31C117.12 117.558 117.664 117.027 118.451 117.027C119.244 117.027 119.699 117.51 119.726 118.31L118.878 118.496C118.878 118.103 118.733 117.807 118.458 117.807C118.223 117.807 118.078 117.965 118.078 118.214C118.078 118.917 119.754 119.096 119.754 120.455C119.754 121.234 119.168 121.745 118.395 121.745ZM123.995 121.689H123.016V117.083H125.188V117.903H123.995V119.069H125.03V119.862H123.995V121.689ZM126.444 117.083H127.43V121.689H126.444V117.083ZM130.732 119.586V117.083H131.635V121.689H130.773L129.739 119.083H129.718V121.689H128.815V117.083H129.746L130.704 119.586H130.732ZM134.479 119.248H135.817V121.689H135.148L135.052 121.214C134.928 121.538 134.638 121.745 134.245 121.745C133.403 121.745 132.9 120.876 132.9 119.441C132.9 117.889 133.486 117.027 134.465 117.027C135.286 117.027 135.714 117.6 135.783 118.434L134.852 118.669C134.831 118.255 134.748 117.883 134.445 117.883C134.1 117.883 133.921 118.427 133.921 119.441C133.921 120.379 134.072 120.903 134.452 120.903C134.728 120.903 134.886 120.669 134.886 120.179V119.979H134.479V119.248ZM139.407 120.869V121.689H137.159V117.083H139.407V117.903H138.132V118.965H139.207V119.745H138.132V120.869H139.407ZM142.508 118.531C142.508 118.11 142.398 117.883 141.991 117.883H141.695V119.179H141.998C142.398 119.179 142.508 118.952 142.508 118.531ZM143.646 121.689H142.612C142.543 121.572 142.501 121.407 142.467 121.193L142.37 120.345C142.322 120.041 142.198 119.931 141.95 119.931H141.695V121.689H140.715V117.083H142.115C143.074 117.083 143.522 117.565 143.522 118.42C143.522 119.062 143.157 119.441 142.757 119.531V119.545C143.06 119.614 143.281 119.848 143.343 120.262L143.467 121.165C143.495 121.372 143.55 121.545 143.646 121.689ZM146.864 117.083H147.85V120.869H149.044V121.689H146.864V117.083ZM150.286 117.083H151.272V121.689H150.286V117.083ZM152.539 119.379C152.539 117.834 153.091 117.027 154.049 117.027C154.849 117.027 155.263 117.6 155.332 118.434L154.429 118.669C154.415 118.255 154.332 117.883 154.036 117.883C153.711 117.883 153.56 118.379 153.56 119.379C153.56 120.386 153.718 120.889 154.042 120.889C154.332 120.889 154.415 120.503 154.436 120.089L155.339 120.324C155.27 121.158 154.856 121.745 154.049 121.745C153.091 121.745 152.539 120.931 152.539 119.379ZM159.521 121.689H158.445L157.728 119.779H157.542V121.689H156.556V117.083H157.542V118.938H157.728L158.397 117.083H159.459L158.597 119.324L159.521 121.689ZM160.651 117.083H161.637V121.689H160.651V117.083ZM164.939 119.586V117.083H165.842V121.689H164.98L163.945 119.083H163.925V121.689H163.021V117.083H163.952L164.911 119.586H164.939ZM168.286 117.538C168.286 118.152 167.879 118.607 167.189 118.607V118.2C167.534 118.193 167.707 118.027 167.707 117.827C167.707 117.8 167.7 117.786 167.693 117.765C167.665 117.779 167.61 117.793 167.562 117.793C167.32 117.793 167.114 117.614 167.114 117.31C167.114 116.965 167.362 116.772 167.645 116.772C168.058 116.772 168.286 117.11 168.286 117.538ZM173.057 119.248H174.395V121.689H173.726L173.629 121.214C173.505 121.538 173.215 121.745 172.822 121.745C171.981 121.745 171.478 120.876 171.478 119.441C171.478 117.889 172.064 117.027 173.043 117.027C173.864 117.027 174.291 117.6 174.36 118.434L173.429 118.669C173.409 118.255 173.326 117.883 173.022 117.883C172.678 117.883 172.498 118.427 172.498 119.441C172.498 120.379 172.65 120.903 173.029 120.903C173.305 120.903 173.464 120.669 173.464 120.179V119.979H173.057V119.248ZM177.144 117.027C178.13 117.027 178.675 117.848 178.675 119.386C178.675 120.924 178.13 121.745 177.144 121.745C176.164 121.745 175.62 120.924 175.62 119.386C175.62 117.848 176.164 117.027 177.144 117.027ZM177.144 117.855C176.778 117.855 176.64 118.331 176.64 119.386C176.64 120.441 176.778 120.917 177.144 120.917C177.509 120.917 177.647 120.441 177.647 119.386C177.647 118.331 177.509 117.855 177.144 117.855ZM181.353 117.027C182.339 117.027 182.884 117.848 182.884 119.386C182.884 120.924 182.339 121.745 181.353 121.745C180.374 121.745 179.829 120.924 179.829 119.386C179.829 117.848 180.374 117.027 181.353 117.027ZM181.353 117.855C180.987 117.855 180.85 118.331 180.85 119.386C180.85 120.441 180.987 120.917 181.353 120.917C181.719 120.917 181.856 120.441 181.856 119.386C181.856 118.331 181.719 117.855 181.353 117.855ZM184.149 121.689V117.083H185.342C186.473 117.083 187.045 117.876 187.045 119.393C187.045 120.903 186.473 121.689 185.342 121.689H184.149ZM185.128 117.896V120.876H185.335C185.831 120.876 186.011 120.434 186.011 119.393C186.011 118.345 185.831 117.896 185.335 117.896H185.128Z" fill="white"/>
<path d="M39.9651 65.793H38.6203L37.7238 63.405H37.491V65.793H36.2583V60.0343H37.491V62.3533H37.7238L38.56 60.0343H39.8876L38.81 62.8361L39.9651 65.793ZM41.9544 65.793H40.7302V60.0343H43.4458V61.0602H41.9544V62.5171H43.2475V63.5085H41.9544V65.793ZM44.1717 62.905C44.1717 60.974 44.8614 59.9654 46.0596 59.9654C47.0596 59.9654 47.5769 60.6809 47.6631 61.724L46.5338 62.0171C46.5165 61.4999 46.4131 61.0343 46.0424 61.0343C45.6372 61.0343 45.4476 61.655 45.4476 62.905C45.4476 64.1637 45.6458 64.793 46.051 64.793C46.4131 64.793 46.5165 64.3102 46.5424 63.793L47.6717 64.0861C47.5855 65.1292 47.0683 65.8619 46.0596 65.8619C44.8614 65.8619 44.1717 64.8447 44.1717 62.905ZM52.1745 63.8447L52.8556 60.0343H54.097L52.7952 65.793H51.5021L50.1832 60.0343H51.459L52.1401 63.8447H52.1745ZM56.4537 59.9654C57.6865 59.9654 58.3675 60.9912 58.3675 62.9137C58.3675 64.8361 57.6865 65.8619 56.4537 65.8619C55.2296 65.8619 54.5485 64.8361 54.5485 62.9137C54.5485 60.9912 55.2296 59.9654 56.4537 59.9654ZM56.4537 60.9999C55.9968 60.9999 55.8244 61.5947 55.8244 62.9137C55.8244 64.2326 55.9968 64.8275 56.4537 64.8275C56.9106 64.8275 57.083 64.2326 57.083 62.9137C57.083 61.5947 56.9106 60.9999 56.4537 60.9999ZM61.0173 64.8361C61.4224 64.8361 61.5345 64.474 61.5345 63.9999V60.0343H62.7759V63.9309C62.7759 65.1637 62.1638 65.8619 61.0173 65.8619C59.8793 65.8619 59.2587 65.1637 59.2587 63.9309V60.0343H60.5V63.9999C60.5 64.474 60.6035 64.8361 61.0173 64.8361ZM63.6693 62.905C63.6693 60.974 64.3589 59.9654 65.5572 59.9654C66.5572 59.9654 67.0745 60.6809 67.1607 61.724L66.0314 62.0171C66.0141 61.4999 65.9107 61.0343 65.54 61.0343C65.1348 61.0343 64.9451 61.655 64.9451 62.905C64.9451 64.1637 65.1434 64.793 65.5486 64.793C65.9107 64.793 66.0141 64.3102 66.04 63.793L67.1693 64.0861C67.0831 65.1292 66.5658 65.8619 65.5572 65.8619C64.3589 65.8619 63.6693 64.8447 63.6693 62.905ZM69.2764 65.793H68.0437V60.0343H69.2764V62.3706H70.423V60.0343H71.6644V65.793H70.423V63.3878H69.2764V65.793ZM75.5533 64.7671V65.793H72.743V60.0343H75.5533V61.0602H73.9585V62.3878H75.3033V63.3619H73.9585V64.7671H75.5533ZM78.7828 61.8447C78.7828 61.3188 78.6449 61.0343 78.1363 61.0343H77.7656V62.655H78.1449C78.6449 62.655 78.7828 62.3706 78.7828 61.8447ZM80.2053 65.793H78.9121C78.8259 65.6464 78.7742 65.4395 78.7311 65.1723L78.6104 64.1119C78.5501 63.7326 78.3949 63.5947 78.0846 63.5947H77.7656V65.793H76.5415V60.0343H78.2915C79.4897 60.0343 80.0501 60.6378 80.0501 61.7068C80.0501 62.5085 79.5932 62.9826 79.0932 63.0947V63.1119C79.4725 63.1981 79.7484 63.4912 79.8259 64.0085L79.9811 65.1378C80.0156 65.3964 80.0846 65.6119 80.2053 65.793Z" fill="white"/>
</g>
<defs>
<filter id="filter0_d_5_192763" x="14.3793" y="37.5345" width="267.241" height="167.241" filterUnits="userSpaceOnUse" color-interpolation-filters="sRGB">
<feFlood flood-opacity="0" result="BackgroundImageFix"/>
<feColorMatrix in="SourceAlpha" type="matrix" values="0 0 0 0 0 0 0 0 0 0 0 0 0 0 0 0 0 0 127 0" result="hardAlpha"/>
<feOffset dy="2.15517"/>
<feGaussianBlur stdDeviation="4.31035"/>
<feColorMatrix type="matrix" values="0 0 0 0 0 0 0 0 0 0 0 0 0 0 0 0 0 0 0.15 0"/>
<feBlend mode="normal" in2="BackgroundImageFix" result="effect1_dropShadow_5_192763"/>
<feBlend mode="normal" in="SourceGraphic" in2="effect1_dropShadow_5_192763" result="shape"/>
</filter>
</defs>
</svg>
