<svg xmlns="http://www.w3.org/2000/svg" width="79" height="79" viewBox="0 0 79 79">
  <g fill="none" fill-rule="evenodd">
    <path fill="#F40027" d="M20.1217823 3.19919071L4.35381452 3.19919071C3.58392333 3.19919071 2.97738112 3.85578117 3.03786496 4.62354264L7.07281887 55.4608526 20.1217823 55.4608526 20.1217823 3.19919071zM74.2179575 3.19919071L58.4499897 3.19919071 58.4499897 55.4608526 71.4987401 55.4608526 75.53412 4.62354264C75.5946038 3.85578117 74.9878487 3.19919071 74.2179575 3.19919071"/>
    <path fill="#231F20" d="M74.8930551,0.972043526 C76.4803301,0.972043526 77.7304715,2.32249443 77.6052444,3.90146351 L71.9542644,75.1273661 C71.8422415,76.5393657 70.6613158,77.6280749 69.2420751,77.6280749 L9.32984593,77.6280749 C7.91039233,77.6280749 6.72946657,76.5393657 6.61765665,75.1273661 L0.96667665,3.90146351 C0.841236565,2.32249443 2.09159096,0.972043526 3.67886593,0.972043526 L74.8930551,0.972043526 Z M74.8930551,0.0136727563 L3.67886593,0.0136727563 C2.65468703,0.0136727563 1.66926891,0.444939603 0.974769558,1.19672823 C0.281761006,1.94660011 -0.0692156667,2.96013044 0.0115004492,3.97728129 L5.66248045,75.2029709 C5.81283818,77.1001191 7.42375295,78.5864457 9.32984593,78.5864457 L69.2420751,78.5864457 C71.1481681,78.5864457 72.7590829,77.1001191 72.9096536,75.2029709 L78.5606336,3.97728129 C78.6411367,2.96013044 78.2899471,1.94660011 77.5971515,1.19672823 C76.9028651,0.444939603 75.917234,0.0136727563 74.8930551,0.0136727563 Z" transform="translate(0 .2)"/>
    <path fill="#231F20" d="M46.6912063,63.7453289 C46.4775961,63.7453289 46.3114785,63.559831 46.3349053,63.3477116 C46.3389518,63.3117194 46.3395907,63.300219 46.3395907,63.300006 C46.3979448,62.4080823 46.092331,61.8850248 45.0907271,61.8850248 L41.991782,61.8884323 L41.1635367,65.6642002 L45.5997285,65.6644132 C45.8280337,65.6644132 45.9975588,65.8756807 45.9483625,66.0984486 L45.5160307,68.0454321 C45.4800386,68.2087811 45.3352181,68.3246374 45.1684616,68.3246374 L40.5742451,68.3246374 C40.5742451,68.3246374 40.063753,70.6379315 40.0454374,70.737815 C39.8746345,71.4844924 40.3849136,71.8723131 40.7271585,72.0388566 C40.7446221,72.0471625 40.7620858,72.0554684 40.7797624,72.0633483 C40.9264996,72.1289435 41.0070028,72.288459 40.9720755,72.4456318 L40.7361033,73.5098493 C40.7001111,73.6721334 40.5559296,73.7879898 40.389599,73.7879898 L34.9873695,73.7879898 C34.7605551,73.7879898 34.5920948,73.578213 34.6410782,73.3569359 L36.9944108,62.6949546 C37.2342165,61.7542604 36.6836857,61.371551 36.2881981,61.2207674 C36.2747809,61.215869 36.2611507,61.2113966 36.2481595,61.2062853 C36.0713933,61.1434588 35.9691671,60.9588127 36.0100576,60.7756574 L36.2177046,59.8370929 C36.2573172,59.659049 36.4153419,59.5321181 36.5978583,59.5321181 L48.6092256,59.5321181 C48.8371049,59.5321181 49.0066301,59.7433856 48.9574337,59.9659406 L48.1803015,63.4667625 C48.1440964,63.6294726 47.9999148,63.7453289 47.8331583,63.7453289 L46.6912063,63.7453289 M28.6257043,59.8351762 C28.664678,59.6581971 28.8216379,59.5321181 29.0028764,59.5321181 L34.8764114,59.5321181 C35.1053556,59.5321181 35.2753066,59.7440245 35.2256843,59.9676443 L35.0265562,60.8702166 C34.9922678,61.023343 34.8655499,61.1323843 34.7096549,61.149209 C34.6826076,61.1519776 34.6655699,61.1536814 34.6653569,61.1536814 C34.2228026,61.2126745 33.4235213,61.356643 32.7686347,61.8690519 L27.886055,65.9295624 C27.8856291,65.9299884 27.8856291,65.9308402 27.8858421,65.9312662 L31.6432944,71.0163815 C32.3714432,71.9526032 32.7307258,72.1223414 33.462921,72.1336288 C33.7031526,72.1381012 33.8756594,72.3634248 33.8236944,72.5976933 L33.618603,73.511979 C33.5826109,73.6734112 33.4394942,73.7879898 33.2742285,73.7879898 L30.348216,73.7879898 C27.107858,73.7884157 26.2133786,72.3672583 23.5141806,67.4327137 C23.5135416,67.4318618 23.5120508,67.4320748 23.5118379,67.4329267 L22.7238441,71.0325673 C22.6041543,71.5920429 23.0726911,71.8882859 23.4160008,72.0277821 C23.4309088,72.0339583 23.4458168,72.0394955 23.4596599,72.0450328 C23.6236478,72.1093501 23.7167162,72.2835606 23.6783814,72.4552155 L23.444539,73.5107011 C23.4083338,73.6725593 23.2647912,73.7879898 23.0988866,73.7879898 L16.3183069,73.7879898 C16.079779,73.7879898 15.9030129,73.5673515 15.954339,73.3345739 L16.153893,72.4326405 C16.1898852,72.2688656 16.3263998,72.1464071 16.4927304,72.1283045 C16.4995454,72.1272397 16.5061475,72.1266008 16.5125367,72.1259619 C17.1339869,72.0541905 17.785892,71.6614715 18.1881947,69.7389797 L19.7258474,62.699427 C19.9236977,61.7617144 19.454735,61.4049875 19.0503025,61.2465369 C19.0468949,61.2450461 19.0230422,61.2367402 18.9859852,61.2241749 C18.8007001,61.1609224 18.6920848,60.9681834 18.734679,60.7769352 L18.9436039,59.836454 C18.9827906,59.658623 19.1408153,59.5321181 19.3226928,59.5321181 L25.7721021,59.5321181 C25.9976387,59.5321181 26.1654601,59.7408299 26.1166896,59.9612552 L25.9111723,60.8891711 C25.8813564,61.0248338 25.7806209,61.1340881 25.6479398,61.1751915 C25.631967,61.1800898 25.6153552,61.1852012 25.5987435,61.1903125 C25.2969632,61.2884922 24.8194815,61.5359649 24.6729573,62.1369698 L23.8138312,66.0545766 C23.8136182,66.0560674 23.815109,66.0569192 23.8161738,66.0560674 L28.8186563,61.898442 C29.1187328,61.6509694 29.0422761,61.320225 28.6981145,61.1877568 C28.6981145,61.1877568 28.6972627,61.1875438 28.6959848,61.1871179 C28.5004772,61.1279119 28.383556,60.9279318 28.427854,60.7283778 L28.6257043,59.8351762 M62.3241503,59.8275092 C62.5386124,59.8862893 62.6685248,60.103733 62.6201804,60.3211767 L61.859234,63.7455419 C61.8230289,63.9088909 61.6782084,64.0249602 61.5110259,64.0249602 L60.4284929,64.0249602 C60.2240405,64.0249602 60.0613304,63.8533054 60.071979,63.6492789 C60.0745346,63.6047679 60.0749606,63.5866653 60.0749606,63.5856005 C60.1269256,62.469205 59.4217776,61.6343576 57.8259838,61.6345706 C55.1732135,61.6349965 53.2436937,63.811776 52.9908968,66.6715544 C52.729794,69.6244012 54.7934857,71.3403108 57.6509214,71.3398849 C59.1159509,71.3396719 60.2757925,71.057059 60.9259938,70.8511158 C61.184115,70.7695478 61.4356341,70.9931676 61.3849469,71.2593817 L61.0490912,73.0287471 C61.0205531,73.1797438 60.9115118,73.3026282 60.7649875,73.3492689 C60.1795295,73.5356188 58.5353912,73.9737007 56.0189225,73.9741267 C50.0401797,73.9751915 47.6142238,70.5361312 47.9899052,67.030411 C48.3238441,63.9084649 50.3892396,59.309776 58.5339004,59.3082852 C60.093702,59.3080723 61.3415008,59.5578876 62.3241503,59.8275092 M52.04786,23.8800865 C51.7256344,25.5938664 51.365287,26.4538445 51.1337872,27.5114599 C50.8935556,28.6108176 50.4213983,30.2181119 49.9630841,30.2596413 C49.4998716,30.3989245 49.3137347,29.8635147 49.0166397,30.2598542 C48.8394476,30.4958264 48.7022941,30.8074034 48.5444824,31.0086613 C48.443747,31.1402775 48.3442894,31.433752 48.3427986,31.5939064 C48.3427986,31.9031407 48.3257609,32.9021889 48.0488982,34.2123883 C47.6316875,36.1894007 46.8730838,37.6297255 46.08509,38.5388999 C44.5757625,40.2797271 43.1620592,40.5599973 42.9938119,40.6488064 C42.777646,40.7633849 42.4500962,40.69566 42.3429716,40.644334 C42.2343563,40.5949246 42.1512975,40.4645862 41.9645216,40.2818568 C41.7719956,40.1018961 41.7051226,40.3757772 41.6978816,40.4456318 C41.6904276,40.510801 41.7956354,41.3345739 41.5856457,41.7072736 C41.1330818,42.5088975 40.6977685,42.5785392 40.4554071,43.5769485 C40.3738391,43.9140821 40.4307025,44.4232964 40.0279738,44.1926485 C39.0436205,43.6304043 37.6333247,42.1078726 37.3413411,40.6319816 C37.252532,40.1823993 37.3355908,39.6810649 37.6096849,38.8264111 C37.7681355,38.3248637 37.8805843,37.7662401 37.8805843,37.4446534 C37.8805843,36.8741034 37.6576034,36.3904456 37.8805843,36.3408233 C38.2939616,36.2490326 38.4822282,37.3190004 38.6741153,37.2080423 C39.0080543,37.0159422 38.7601557,35.8861296 38.7601557,35.8861296 C38.7601557,35.8861296 38.6230022,35.5649689 38.0375442,35.4276024 C37.7006236,35.348803 37.5947769,35.0964321 37.9540594,34.9200918 C38.2221903,34.7886886 38.5337673,34.6157559 38.8968833,34.6698506 C41.323904,35.0137992 42.0222369,34.526095 43.0038215,34.2613717 C43.1965605,34.2102586 43.3100742,34.1876836 43.4610708,34.259029 C43.6110026,34.3286706 44.0139443,34.5490959 44.0957253,34.756104 C44.178997,34.9611953 44.0929566,35.7666527 44.2215913,36.372769 C44.3527816,36.9814409 44.7804279,36.4283545 44.8867006,36.1876969 C44.9942511,35.9489561 45.1043573,35.3603035 45.1265063,35.2105847 C45.1501461,35.0617177 45.2749473,34.4355822 45.499632,34.2490193 C45.944316,33.8799401 46.1008499,33.3947915 46.1724082,33.2050341 C46.2460963,33.0150637 46.3621657,32.4293927 46.3412945,31.5738871 C46.3202103,30.7200852 46.1658061,30.6274427 45.959437,30.4438614 C45.7558364,30.2609191 45.5111324,30.2962723 44.9910565,29.8202815 C44.5274181,29.3947649 44.1455605,28.7072936 43.8101308,28.274536 C43.4736362,27.8430561 42.9158644,27.3792047 42.2792932,27.2235227 C41.6452777,27.0706093 41.9085102,27.6554284 41.9425856,27.8198423 C41.969207,27.9356986 42.1184999,28.4547097 41.9068064,28.6259386 C41.6997983,28.7963156 40.4170723,29.6586363 39.2729906,29.3596246 C37.9095484,29.0037496 37.438456,28.24472 37.4103437,27.5114599 C37.3907504,26.9918099 37.6397138,26.4906885 37.9502259,25.8952208 C38.1321034,25.5470127 38.2053655,24.9656011 38.2784147,24.4080423 C38.3365559,23.9620805 38.4560327,23.3169904 38.5531476,23.0876204 C38.6230022,22.9221417 38.7874161,22.7423939 39.1573472,22.7634781 C39.5230189,22.7839233 39.7630375,22.9660138 39.8299105,23.2816372 C40.0669475,24.3784393 40.4534904,24.655515 40.5844677,24.744324 C40.7169359,24.8327071 40.9644085,24.655515 41.0608845,24.5911976 C41.1584253,24.5279452 41.4065369,24.277065 41.3285894,24.1424671 C41.2101774,23.9339683 41.1447952,23.8089541 41.1185997,23.6867086 C41.0734498,23.4779967 41.3345526,23.5033403 41.3873695,23.5450827 C41.8148028,23.8817903 42.2177445,23.9113933 42.9563289,24.0344907 C44.2482127,24.2498047 44.4334977,23.7736009 45.321162,23.9275791 C45.4361665,23.9475984 45.655101,24.0438614 45.7266593,24.1769685 C45.7854394,24.2909081 45.8934159,24.5530758 46.0018182,24.5990776 C46.1093687,24.6408199 46.3728142,24.6570058 46.5086899,24.6814975 C46.6965306,24.7132302 47.0328122,24.692146 46.9763748,25.0392892 C46.8317673,25.9695478 45.7581791,26.2261782 45.2564188,26.3124315 C45.0491977,26.3479977 44.9542125,26.3650354 44.920563,26.3946384 C44.8119477,26.4900496 44.8079012,26.7813943 44.9329154,26.9696609 C45.0215114,27.102129 45.4272217,27.1104349 45.9828638,27.0037363 C46.5623587,26.8925653 47.1188526,26.612934 47.5582124,25.9280184 C48.0237676,25.2026382 48.2797591,23.6055665 48.3338538,23.3071938 C48.3864577,23.0092469 48.5059346,22.5102552 48.6701354,22.408029 C48.8324196,22.3060158 49.5884676,22.0764327 49.6949532,22.0951742 C49.8218841,22.1171102 49.9141007,22.178233 49.9739456,22.4706426 C50.0333646,22.7660337 49.9224066,24.5258154 49.9202769,24.7911777 C49.9170823,25.0744295 50.0623287,25.0718738 50.1432578,25.0346038 C50.319598,24.9532488 50.7902646,24.6397551 50.8967502,24.277278 C50.9755496,24.0082952 50.7487352,23.6164281 50.8626748,23.2443672 C51.0400799,22.6642335 51.2147163,22.5098293 51.335684,22.5215427 C52.0732036,22.5918232 52.2242002,22.9151136 52.04786,23.8524003 M41.5924608,33.3413357 C41.3181538,33.4416452 40.5263266,33.6258654 40.1427653,33.6492922 C39.7557965,33.6710153 38.5290819,33.7540741 38.3231387,33.7442774 C38.0703418,33.7295824 37.7289488,33.606272 37.4514472,33.3526232 C37.3954358,33.3010842 37.3347389,33.124318 37.5611274,33.1200586 C37.9817457,33.1126046 38.6922179,32.8881328 41.138406,33.0951409 C41.3999348,33.116864 41.5236711,33.1281515 41.5856457,33.1341147 C41.6497501,33.1407168 41.8663419,33.2446468 41.5924608,33.3413357 M35.5762351,32.3478247 C34.3855126,32.3327037 33.8345559,31.8890846 33.7493674,31.7566164 C33.6675864,31.6281947 33.8049529,31.5287371 33.9293281,31.4886985 C34.2104502,31.3996765 34.7100809,31.1470926 34.9128295,30.9931144 C35.1164301,30.8412658 35.6776094,30.49178 35.9608612,30.3094766 C36.0941812,30.2223713 36.859813,29.8890712 37.3072656,30.2010742 C37.97919,30.669824 38.6068164,30.9831047 39.7557965,30.9128242 C40.4950198,30.8676743 40.478408,30.2711417 41.0798389,30.0811713 C41.6233417,29.9099424 41.7276976,29.7766224 41.8978616,29.6769518 C42.1172221,29.6330798 42.2792932,29.5777072 42.5173951,29.7994103 C42.8191754,30.0805324 42.9284297,30.3018096 43.2777026,30.6966583 C43.7558231,31.2363276 44.28314,31.4880596 44.446489,31.5200053 C44.6087731,31.5532288 44.7256943,31.685271 44.7273981,31.7397917 C44.7288889,31.7934605 44.6622289,31.9612818 44.1800619,32.0990742 C42.5708509,32.5601571 40.8283199,32.2645529 39.9312848,31.9061223 C39.4759522,31.7242448 39.0333979,31.6746225 38.5337673,31.9199654 C38.0303032,32.1667991 36.6875192,32.3614549 35.5762351,32.3478247 M35.0041942,38.9667592 C34.0920382,38.9948714 31.7076117,37.5558244 30.66746,33.4712482 C30.3976254,32.4204479 31.0599661,31.5679239 31.4710006,31.4216126 C31.7140009,31.3323776 31.8415707,31.3042654 31.9235646,31.2934039 C32.0079012,31.2827553 32.4231952,31.285311 32.4087132,31.7542737 C32.3944441,32.1344275 32.7100676,35.3019494 33.5368221,36.4483738 C33.7419134,36.7326904 33.9316708,36.743126 34.0258041,36.4920329 C34.1122705,36.2588293 34.2558131,35.9579009 34.3020279,35.8435353 C34.3358903,35.7613284 34.6366058,35.3010975 34.7260537,35.6503704 C34.9155981,36.3923623 35.3600692,37.9191534 35.547058,38.3133633 C35.8569312,38.9671851 35.3460131,38.9563236 35.0041942,38.9667592 M30.2112755,26.7777738 C30.1471711,26.5026149 30.2696296,26.0909414 30.9174883,26.5064484 C31.0212053,26.5728954 31.3255412,26.7111138 31.6637396,26.8082287 C31.868618,26.8672217 32.0012991,26.7809684 32.0592273,26.6321014 C32.1192852,26.4845123 32.2873196,26.189973 31.9989564,26.0487731 C31.7120841,25.9054434 31.0020379,25.782133 30.5967535,24.7843626 C30.5239173,24.6063186 30.6465888,24.4012272 30.7605284,24.3486233 C30.8757459,24.2970843 31.0180107,24.3232798 31.1509048,24.4491458 C31.282734,24.5728821 31.5657729,24.8461243 31.8194216,24.8561339 C32.0530511,24.8672084 32.091173,24.7724362 32.1384526,24.7174896 C32.3345992,24.4970643 32.8970563,23.6747822 34.063713,23.817473 C34.5443892,23.876253 34.9882214,23.9831646 35.1500795,23.995304 C35.26551,24.0029709 35.5856058,24.01724 35.8920715,23.9597378 C36.2413444,23.8943556 36.7626981,23.7859532 36.5075585,24.0809184 C36.3001245,24.3202982 36.1267658,24.4199687 36.3084303,24.6797937 C36.3178011,24.6932109 36.3271718,24.7057762 36.3359036,24.7181285 C36.4996785,24.9489894 36.5041509,25.256094 36.3376074,25.4846122 L36.3173751,25.5140022 C36.0596799,25.8487931 35.5266128,26.2342711 34.4246993,26.3041257 C33.922726,26.3360713 33.8912063,26.3175428 33.8805577,26.6046281 C33.8767242,26.7153732 33.878215,26.7737273 33.8941879,26.8510359 C33.9244298,26.9954304 34.0168593,27.0554883 34.3654933,27.0772114 C34.6180773,27.0925453 35.0804379,27.042923 35.0812898,27.0427101 C35.1950165,27.0086347 35.3287624,27.0810449 35.2559263,27.1758171 C35.2444258,27.1898732 35.198211,27.2590889 35.1901181,27.2697374 C34.9400898,27.5928149 34.8621424,27.888206 34.8389285,28.0645463 C34.8191222,28.2140521 34.7328688,28.3477981 34.6006136,28.4163748 C34.5986969,28.4172267 34.5972061,28.4180786 34.5952893,28.4189305 C34.434496,28.5015633 33.7842947,28.6419114 33.2727377,29.0644464 C32.7635233,29.4869815 31.6988799,29.8349765 31.2414176,29.3157526 C30.7833164,28.7982323 30.4101907,27.6398815 30.2112755,26.7777738 M29.8803181,21.6607128 C29.7372014,21.6758337 29.6158078,21.5885155 29.4594869,21.5548661 C29.2782483,21.5152534 29.1672903,21.5706259 29.0921114,21.4707424 C29.0256644,21.3683032 29.0378037,21.2714013 29.1415207,21.2320016 C29.2448118,21.1932408 29.3202037,21.2222049 29.4247726,21.2021856 C29.6375309,21.1617211 29.8967169,20.9182949 30.088604,21.1883425 C30.2125533,21.3638308 30.1062807,21.6362211 29.8803181,21.6607128 M28.1124435,28.1520775 C27.6524255,27.8458248 27.6771302,27.4445869 27.560209,27.0499511 C27.3118845,26.212761 27.0450314,25.2047679 26.8143835,24.3473455 C26.6746744,23.8291864 26.6391082,22.6129074 27.3425523,22.6129074 C27.6969365,22.6129074 27.9614469,22.7240784 28.0747476,23.0580174 C28.3269056,23.8008612 27.8519796,23.6715876 27.9735862,24.5496682 C28.0602655,25.1704795 28.1786776,25.782346 28.3748241,26.8369798 C28.464911,27.3229803 28.6233616,28.4926185 28.1961412,28.2080889 M26.7575202,16.2227041 C27.0139376,15.5288436 27.4803447,14.9374224 27.7987368,14.5197857 C28.0900815,14.1377152 27.9525021,13.6336122 27.8034222,13.1819001 C27.7071592,12.7657542 27.4396672,12.3353393 27.3989897,12.2216126 C27.3693867,12.1417484 27.3685348,12.077644 27.3940914,12.0212066 C27.4128329,12.0084283 27.4288057,11.9979927 27.4483991,11.9854274 L28.0117081,11.9372959 C29.6239007,11.7311397 31.045697,11.1648491 31.4752601,10.9237656 C31.6867405,10.8051406 31.9112123,10.7118592 32.1407953,10.6341247 C32.409991,10.54276 32.6883445,10.4511823 32.9671239,10.4143383 C33.1779655,10.3798369 33.4277808,10.3472523 33.641391,10.3238255 C33.960209,10.2876204 34.464099,10.5108143 34.3520761,10.5772613 C34.0822415,10.7389065 32.8295444,11.0287604 31.7274181,12.344497 C31.0520861,13.1491025 30.8953393,13.6468164 30.667673,14.0173864 C30.4370251,14.3892343 30.252166,14.4778304 29.9280237,14.7576746 C29.7695731,14.8929114 29.4464956,15.1761632 29.288258,15.6270234 C29.1283165,16.0817171 28.5128295,17.6687791 28.4325393,20.1890812 C28.4238075,20.4817038 28.3729074,20.7907251 28.0956188,20.8967848 C28.0956188,20.8967848 28.094128,20.8972107 28.0934891,20.8976367 C27.8656098,20.9898532 27.6811767,21.1404239 27.6430548,20.9762231 C27.4967435,20.4231367 27.1576933,19.2300715 27.0158544,18.4744494 C26.9709174,18.2359216 26.9181006,18.0001624 26.8616632,17.7644032 C26.707259,17.120378 26.6371914,16.5485501 26.7575202,16.2227041 M31.6603321,22.3515916 C31.3672836,22.5375156 31.0799854,22.7528295 30.8614768,22.8942425 C30.5948368,23.0701567 30.2197943,22.9016964 30.3294746,22.5277189 C30.3833563,22.3460544 30.6414775,21.8804992 31.075087,21.7982922 C31.1315244,21.7865788 31.3466254,21.7456883 31.5265861,21.7239653 C31.7365758,21.7016033 31.9601957,21.6826488 32.0741353,21.6777505 C32.3814529,21.6643333 32.4148894,21.9107411 32.2066034,22.0380979 C32.0683851,22.1230734 31.8549879,22.2282813 31.6603321,22.3515916 M32.0645516,22.9021224 C32.142925,22.838231 32.1776393,22.838018 32.4421497,22.6925587 C32.6302033,22.5884157 32.8448784,22.459781 33.0616831,22.319007 C33.4544022,22.0636545 34.1978849,21.7995701 34.5135084,21.8029776 C34.7416006,21.8057462 35.1402829,21.904139 35.3524022,22.1352128 C35.5738924,22.3767222 35.6343762,22.6578443 35.3453742,22.6090739 C35.0591408,22.5596646 34.7550178,22.482356 34.2040611,22.6090739 C33.5877222,22.749635 33.1692336,22.9858201 32.8719257,23.1189272 C32.5678027,23.2597012 32.2598463,23.2935636 32.158046,23.2888782 C32.0598662,23.2822761 31.780022,23.1325573 32.0645516,22.9021224 M36.6161738,28.3610023 C36.6881581,28.4932575 36.711372,28.7153865 36.6909268,28.8069642 C36.6696296,28.919626 36.2747809,29.0665762 35.9461662,28.5754644 C35.6184034,28.0873342 35.7719557,27.4869682 35.9672503,27.2512089 C36.2762717,26.872759 36.7492809,27.1479179 36.6811301,27.287627 C36.444519,27.7729886 36.5497268,28.229599 36.6161738,28.3610023 M46.4712069,23.5689355 C46.3502393,23.6298453 45.8944807,23.4769319 45.7684017,23.4062254 C45.5160307,23.2648125 45.3367089,23.164716 44.9972327,22.8748621 C44.7721221,22.6846787 44.3619394,22.5952308 43.9734798,22.6139722 C43.6761718,22.6284543 43.3801418,22.6921327 43.1518365,22.7453755 C42.9267259,22.7998962 42.9094752,22.5952308 42.9765612,22.5179222 C43.0440731,22.4410396 43.3601225,22.1513986 44.0499364,21.970799 C44.1502459,21.9443905 44.3442628,21.9533353 44.4422295,21.9637709 C44.7299537,21.9959296 45.0743283,22.1871778 45.3220139,22.4278353 C45.5694865,22.6701967 46.070395,23.0967781 46.3410815,23.2620439 C46.4699291,23.3391395 46.7570144,23.4228372 46.4712069,23.5689355 M46.1896589,22.4280483 C46.1896589,22.4280483 45.7630774,22.1367036 45.6265628,21.8998795 C45.5592639,21.7827453 45.5745979,21.6849915 45.7549845,21.6835007 C46.3945373,21.6768986 46.9802083,21.6615647 47.2653769,21.9007314 C47.4728109,22.0753679 47.4785611,22.4399747 47.3767608,22.675308 C47.2592007,22.9440777 47.0247193,22.867834 46.8907604,22.8486666 C46.7572274,22.8284343 46.1896589,22.4280483 46.1896589,22.4280483 M49.3955156,21.4707424 C49.2986137,21.5755243 49.2129992,21.5124848 49.0134451,21.5621071 C48.8577631,21.600016 48.7542591,21.6877601 48.6109294,21.6749819 C48.3845409,21.6545366 48.273157,21.3840631 48.3939117,21.206658 C48.5811134,20.9329899 48.8449849,21.1713048 49.0581691,21.2085748 C49.162738,21.2268903 49.2379169,21.1962224 49.3420598,21.2334924 C49.4462028,21.2705494 49.4604719,21.3668124 49.3955156,21.4707424 M30.9588047,9.10925027 C31.0565585,8.95804066 31.2938085,8.73718944 31.5306326,8.56617351 C31.7789571,8.38834248 33.0007734,7.47299191 34.1356973,7.12733952 C34.3461129,7.06472597 34.3999947,7.03299324 34.5343796,7.00083458 C34.7045436,6.95653655 34.8487252,6.59001298 34.4945539,6.53655719 C34.122919,6.48288842 33.9714965,6.50716715 33.7734332,6.51376926 C33.5753699,6.51802868 33.4797458,6.41175601 33.6235014,6.25586104 C33.7695997,6.09911417 34.0326192,5.93938571 34.4954058,5.75367475 C35.5057416,5.35115903 37.2964041,5.13627101 38.1314645,5.06194403 C39.2210256,4.96802369 39.3528548,4.97143123 40.0616232,5.02595188 C40.7258807,5.07600013 41.2468084,5.19994942 41.4934292,5.24339556 C42.7437836,5.46957106 44.1843213,6.04863998 45.4651306,6.75165818 C46.1393977,7.15161825 46.7889601,7.59821903 47.3937985,8.06952448 C49.2287591,9.50005258 51.3363229,12.2209737 51.0287924,17.9520309 C50.9921613,18.6286406 50.9120841,19.003896 50.8677861,19.167245 C50.8219973,19.3331496 50.6024239,19.6164015 50.4861416,19.241572 C50.1070527,18.0154963 49.6193484,15.8542638 48.5097681,14.1475119 C48.3553639,13.909623 48.117049,13.931772 48.1406888,14.1824392 C48.1494207,14.2870081 48.2007467,15.3801897 48.1736994,15.5914572 C47.9939516,16.9991974 48.4252185,16.4507963 49.0605118,17.9611886 C49.2572973,18.4284476 49.5105201,19.3523171 49.5739856,19.9479977 C49.5903843,20.0977165 49.6106166,20.2712881 49.6144501,20.4378317 C49.6187095,20.6482473 49.5143536,20.6623034 49.5143536,20.6623034 C49.0796792,20.6608126 48.3219274,20.4544434 47.9130225,20.4414522 C47.4481062,20.4265442 44.2209524,20.3939596 43.0082939,20.4895837 C41.7945706,20.5822262 41.1330818,21.0188173 40.4460364,21.5814875 C40.3320968,21.6747689 40.1695997,21.7620871 40.078235,21.807663 C40.0322332,21.8306639 39.9811201,21.837479 39.9308589,21.8287471 C39.8750604,21.8191634 39.7845476,21.8019127 39.641005,21.7720968 C39.3447619,21.711187 38.9863312,21.6871212 38.6966903,21.7759303 C38.4074753,21.8623966 38.2711737,21.9369365 37.9585318,21.755698 C37.5134218,21.4954471 36.8306359,20.4563602 34.4481262,20.4371928 C33.0981012,20.4265442 31.327458,20.4082287 30.2849636,20.4542305 C29.948043,20.4689255 29.7723417,20.5068344 29.6858753,20.5047047 C29.6786343,20.465092 29.6767176,20.4101454 29.6765046,20.3992839 C29.658615,18.4968114 30.9002376,18.9184946 31.0425024,18.4241882 C31.3970996,17.1919364 31.4801584,14.228015 33.6322332,12.4081754 C34.6610975,11.5386137 35.1958684,11.5019826 36.1508316,11.5019826 C37.1799088,11.5019826 38.1836425,11.7705394 38.6956254,12.0241882 C39.1030395,12.2254461 39.3049363,12.3602569 39.4650907,12.2418449 C39.6250321,12.1200253 40.0533174,11.7317786 40.2298706,11.5984586 C40.4072756,11.46237 40.3404026,11.2511025 40.1730072,11.1128841 C40.0120009,10.9823327 38.4852098,9.06218362 36.1446554,8.6752148 C35.6086067,8.58597983 35.2126931,8.5046248 34.7256278,8.50334698 C34.4623953,8.4935503 34.2285528,8.49248544 33.6171122,8.56659945 C32.721355,8.6752148 31.5502259,9.17378057 30.7967336,9.47279225 C30.756056,9.42955908 30.911738,9.17697514 30.9588047,9.10925027 M30.1857189,35.7951908 C30.2087198,36.7778403 30.778631,39.3722565 34.0741486,41.8342045 C35.4484523,42.8607261 36.0786343,43.3237257 36.2598729,43.4493787 L36.259021,43.4568327 C36.3495338,43.5200852 35.7717427,43.5053902 35.6126532,43.5207241 C35.3547449,43.5452158 34.4760254,43.4655645 33.7725813,43.595903 C33.1379269,43.7128242 33.2241802,43.8657376 33.1611407,44.3249037 C33.1110925,44.6888716 33.1579462,45.2655978 33.1398436,45.7571355 C33.1208892,46.2486733 33.0938418,46.5979462 33.3021277,46.8360481 C33.507432,47.0696775 33.6371315,47.1071605 34.5081841,47.0532788 C35.3366424,47.0025916 37.6305561,47.0008878 37.9069928,46.9446634 C38.2618029,46.8720402 38.2051526,47.0006749 38.0007001,47.4396087 C37.6503624,48.1916103 36.5077715,51.6394023 34.7320169,54.9155396 C34.4830535,55.3744927 35.1830901,55.157475 35.7804745,55.4454121 C36.8604519,55.9665529 36.8250987,56.1113733 37.1087764,55.5680836 C37.4163069,54.979005 38.9746178,51.3114266 39.2159143,50.1790583 C39.2470081,50.0312562 39.3104735,49.9032605 39.3349652,50.1251765 C39.3522159,50.285118 39.3750038,54.9183082 39.2459432,56.3797171 C39.2391281,56.4570257 39.2578696,56.5377418 39.3121773,56.5935403 C39.3901248,56.6736175 39.507472,56.706841 39.6073555,56.7302679 C39.6084204,56.7302679 39.6092722,56.7302679 39.6103371,56.7300549 C40.1465988,56.551159 40.7961612,56.4195428 41.3475438,56.5104815 C41.3965272,56.5047313 41.4431679,56.4940827 41.4878919,56.4802396 C41.5174949,56.4555349 41.5441163,56.4263579 41.5630708,56.3918565 C41.606091,56.313909 41.628027,56.2259519 41.6471944,56.1396985 C41.6488982,56.1330964 41.650389,56.1267073 41.6516668,56.1194662 C41.6785012,55.9963688 41.7004373,55.8715677 41.7138544,55.7461276 C41.7215214,55.6720136 41.7266327,55.5974736 41.7315311,55.5231467 C41.7374943,55.4266707 41.7417537,55.3299817 41.7449483,55.2332927 C41.7492077,55.1167974 41.7519763,55.0000892 41.7534671,54.8840198 C41.7555968,54.749209 41.7564487,54.6146112 41.7564487,54.4800133 C41.7564487,54.3300815 41.7549579,54.1792979 41.7528282,54.0289401 C41.7502725,53.8649522 41.7464391,53.9196859 41.7417537,53.755911 C41.7366424,53.5804226 41.7302532,53.4045083 41.7227992,53.229233 C41.7149193,53.0441609 41.7057615,52.8590889 41.695113,52.6740168 C41.6844644,52.4814908 41.672325,52.2893907 41.6584819,52.0970776 C41.6444258,51.8994403 41.6286659,51.7018029 41.6109893,51.5041656 C41.5935257,51.3033337 41.5745712,51.1029277 41.5532741,50.9020958 C41.531977,50.700412 41.5087631,50.4987282 41.4836325,50.2974703 C41.4585019,50.0966384 41.4314545,49.8966583 41.4016385,49.6964653 C41.3726745,49.498615 41.3411547,49.3016166 41.3068663,49.1048311 C41.2734298,48.912731 41.2372247,48.8300982 41.198251,48.63885 C41.1601291,48.4539909 41.1194516,48.2697707 41.0749406,48.0864024 C41.0325593,47.9109141 40.9865575,47.7362777 40.9365093,47.562919 C40.8964707,47.4251266 40.8540894,47.2879731 40.8087265,47.1506066 C40.8006336,47.1290965 40.7635766,46.9410429 40.7684749,46.9165512 C40.782531,46.8488263 40.8677195,46.8978097 40.960788,46.8799201 C40.960788,46.8799201 41.0044471,46.8716143 41.0291518,46.8675678 C41.6188693,46.7883425 42.6453908,46.8411594 42.8771036,46.8507431 C43.1054088,46.8575582 44.2722785,46.9689421 44.6011061,46.9989711 C44.9273781,47.0304908 45.3239307,47.1063086 45.306467,46.1155662 C45.3017816,45.8512688 45.3009298,45.6938831 45.3017816,45.4474753 C45.3022076,45.4142518 45.3022076,45.3799634 45.3022076,45.3471658 C45.3028465,45.2845523 45.3032724,45.2230036 45.3039114,45.1637975 C45.3049762,45.1273795 45.3049762,45.0945819 45.3058281,45.0598676 C45.3060411,45.0260051 45.306467,44.9923557 45.3068929,44.959984 C45.3073189,44.9297421 45.3079578,44.8986483 45.3083837,44.8705361 C45.3103005,44.8168673 45.3113653,44.7653283 45.3134951,44.7182616 C45.313921,44.7033536 45.313921,44.6899364 45.3147729,44.6756674 C45.3151988,44.6396752 45.3166896,44.6070906 45.3183934,44.5764227 C45.3188193,44.5610888 45.3194583,44.5463938 45.3203101,44.5316988 C45.321375,44.5035866 45.3230788,44.4810116 45.3241436,44.4603534 C45.3249955,44.4537513 45.3249955,44.4441676 45.3258474,44.4384174 C45.328616,44.4086014 45.3301068,44.3764427 45.3311717,44.3413025 C45.3386257,44.09958 45.3075319,43.6565998 44.8496436,43.5388267 C44.3223267,43.4069974 43.3950497,43.3754777 42.5612672,43.4478879 C42.4449849,43.4583235 42.4192153,43.4478879 42.4549945,43.4153033 L42.4558464,43.4078493 C42.6355942,43.2798536 43.8393078,42.6145313 45.2163802,41.3820665 C46.7312449,40.0230967 47.4542824,39.3006981 47.9174949,38.3174097 C47.9174949,38.3174097 49.5754764,35.1006915 49.4922046,32.3767888 C49.4753799,31.826684 49.5639759,31.8728987 49.9062208,31.8829084 C50.0088729,31.88589 50.4007401,31.8584167 50.6115816,31.7187075 C51.3150258,31.5585531 51.936263,29.1573019 51.936263,29.1573019 C51.936263,29.1573019 52.9926006,25.5110206 53.2485921,24.0197957 C53.4764713,22.6934105 53.4223766,21.918408 52.6132987,21.5244112 L52.477849,21.4479545 C52.4169392,21.4132402 52.3866973,21.3418948 52.4052258,21.2743829 C52.4207727,21.2179455 52.4373844,21.1517114 52.4459033,21.1020891 C52.841391,19.7279984 53.5484556,17.9886619 53.3880882,17.283727 C53.360189,17.0814043 53.1885342,17.0155962 53.1291152,16.9751316 C53.0466953,16.9193331 52.7329886,16.5696343 52.6458833,16.3236525 C52.6328921,16.2878733 52.6282067,16.2503903 52.6247992,16.2126944 C52.4016053,13.6180653 51.4796526,10.3630122 48.7333879,7.52836445 C48.7293415,7.52559582 48.5446954,7.35628365 48.4320335,7.25341852 C48.1967003,7.04172507 47.8959848,6.77827959 47.5499065,6.5186676 C46.8185631,5.97197032 46.2350218,5.55241689 45.032373,4.95205085 C44.9395175,4.90626202 44.0363063,4.49522745 42.7016153,4.16895544 C42.5768141,4.13530598 42.4507351,4.10272137 42.3238042,4.07290539 C42.1276576,4.0269036 41.8214049,3.97046621 41.472345,3.92254767 C40.6500629,3.79370004 39.736842,3.72469735 38.7874161,3.78326445 L38.7874161,3.78369039 C38.6741153,3.78922765 38.5420731,3.79582976 38.5071459,3.7962557 C38.4504955,3.79732056 38.3908635,3.80008918 38.3329353,3.80243187 C38.268405,3.80498752 38.2053655,3.80626535 38.1382796,3.808821 C37.9372347,3.81840471 37.6722984,3.84885961 37.3941579,3.88847226 C36.9450015,3.95364148 36.4632605,4.04330239 36.1663785,4.112944 C35.8341433,4.19366011 35.3864777,4.2871545 34.8267891,4.44752188 C34.5969931,4.51460783 34.3654933,4.58616618 34.1354843,4.66070613 C34.0705281,4.68136435 34.0059978,4.70138365 33.9418934,4.72204186 C33.693356,4.80403581 33.4435406,4.88879838 33.1909567,4.97973711 C33.0078014,5.04405444 32.2296043,5.38097501 32.0602922,5.4589225 C31.9791501,5.49661842 31.8673402,5.54453695 31.7465855,5.59352035 C31.1979714,5.76751789 31.082754,6.08463213 31.0629477,6.25905561 C31.0501694,6.3710785 31.0246128,6.48224951 30.9769073,6.58426275 C30.1863579,8.26418023 28.3271186,8.42689029 27.5889601,8.46373432 C27.3957951,8.47310505 27.2252052,8.50143024 27.2863279,8.68884496 C27.4437137,9.17122492 28.3132754,10.0706026 28.8454907,10.2339516 C28.8378237,10.3108342 28.3895192,10.4081621 28.2955988,10.4330798 C28.0813497,10.4888782 27.2000745,10.4115697 27.1566284,10.4203015 C27.1527949,10.4207274 27.1498133,10.4213663 27.1461928,10.4215793 C26.1469315,10.505703 25.8400399,11.1861462 25.750379,11.5087977 C25.7224798,11.6086812 25.7384526,11.7166577 25.7957419,11.80355 C26.0161672,12.1396186 26.2483059,12.4137127 26.4231553,12.8571189 C26.425072,12.8618043 26.4269888,12.8669156 26.4286926,12.8716009 C26.4740554,12.9883092 26.5155848,13.1171568 26.55179,13.2615514 C26.5730871,13.4517347 26.7251486,13.649585 26.5328355,14.0224978 C26.1920815,14.6829217 25.3401963,14.8895038 25.2126265,15.5456684 C25.031388,16.4784826 25.3534006,17.0890712 25.706294,18.6309833 C25.9484423,19.6879598 26.209971,20.7805025 26.3971728,21.2760867 C26.4069695,21.3022821 26.3916356,21.3293295 26.3643752,21.3346538 C26.2894093,21.3489228 26.1597098,21.3761832 26.1160507,21.3906652 C25.6225963,21.5870247 25.4675532,21.9756973 25.4111158,22.7353659 C25.2873795,24.4154963 26.5279372,27.0073568 26.9123503,29.2277954 C27.0418369,29.9770284 27.3870633,31.1777605 27.9614469,31.6692982 C28.094128,31.7828119 28.3712036,31.8556481 28.5432844,31.885464 C28.9922279,31.9634115 29.1873096,31.6793078 29.2128661,32.130168 C29.2184034,32.2238754 29.2501361,32.4770983 29.2543955,32.620002 C29.3314911,34.2134531 30.1857189,35.7951908 30.1857189,35.7951908"/>
  </g>
</svg>
